<svg version="1" xmlns="http://www.w3.org/2000/svg" width="933.333" height="933.333" viewBox="0 0 700.000000 700.000000"><path d="M358 36.7v34l13.3.6c26.2 1.3 53.5 7.4 78.9 17.7 6.4 2.6 6.9 2.7 4.3.8-11.8-8.8-21.1-21.2-25.9-34.7-2.7-7.7-3-9.8-3.1-20.6 0-7.1.6-14.2 1.4-17.4 1.6-6.4 1.8-6.3-9.3-8.5-15-2.9-29-4.6-44.3-5.3L358 2.7v34zM546.5 75c-7.2 9.8-18 17.5-31.7 22.6-10 3.7-27.7 4.5-38.5 1.6-4-1-7.3-1.7-7.3-1.5 0 .1 2.4 1.5 5.2 2.9 16.9 8.6 35.6 22.4 53.1 39.4 20.3 19.6 34.2 38.2 47.4 63.4 6.9 13.1 7.3 13.8 6.6 9.1-1.2-7.6-.6-20.6 1.1-27.7 3.9-15.3 16.1-32.8 28.6-40.8 3-1.9 4.7-3.7 4.3-4.4-2-3.5-15.1-20.3-21.5-27.6-9.6-11-27.3-28.4-36.5-36.1l-7.1-5.9-3.7 5z"/><path d="M326 73.4c-12.6 1.5-28.3 4.1-34.4 5.7-3.6 1-3.8 1.2-3.2 4.2.4 1.8 1.1 5.7 1.7 8.7 3.3 20-3.7 42.1-18.2 57-4 4.1-7.1 7.8-7.1 8.2.1.5-.1.7-.6.6-.4-.1-5.5 2.1-11.3 4.9-12.5 6-19.3 7.7-30.9 7.5-20.5-.2-40.3-9.4-52.1-24.4-2.3-2.9-4.5-5.4-4.9-5.6-2.4-.9-33.8 29-45.6 43.3-4 4.9-10 12.7-13.3 17.1l-6 8.2 5.2 3.5c19 12.5 29.9 33.6 29.7 57.2 0 12.7-.1 13.1-4.9 25-6.3 15.7-14.5 25.5-28.7 34-12.1 7.3-30.6 10.9-44.3 8.6-3.6-.6-6.7-.9-6.9-.6-.3.2-1.1 6-1.9 12.7-2.2 18.4-.7 78.8 2 81.5.2.2 3.9-.2 8.1-.8 19.3-2.6 41.6 4.5 55.2 17.8 5 4.9 12.1 12.9 12.4 14.1.6 1.9 1.6 4.4 4.7 12.2 4.1 10.1 4.2 10.8 4.4 23 .1 10.1-1.6 19.4-5.1 27.4-4.9 11.5-15.7 24.4-26.2 31.3l-3.7 2.5 4.1 5.7c8.5 11.6 19.3 24.5 28.9 34.5 10.1 10.6 29.1 27.9 31.2 28.4.7.1 3.2-2.3 5.7-5.3 8.5-10.8 23.5-19.9 37.8-23.1 5.6-1.2 10-1.5 18.1-1.1 14.2.8 14 .8 26.4 6.6 9 4.4 11.9 6.3 18 12.4 8.4 8.6 13.7 17.1 17.4 28.2 2.2 6.7 2.7 9.9 2.7 19.5.1 6.7-.5 13.7-1.3 16.8-.7 2.9-1.1 5.6-.8 5.9 2.2 2.1 36.7 7.2 54.5 8l14.2.6v-67l14.1-.7c16.4-.7 33.4-2.8 46.9-5.7 5.2-1.2 9.6-2.2 9.8-2.4.2-.2-.4-4-1.2-8.5-2-10.4-2-18.1 0-27.8 5.1-24.9 25-45.6 49.9-51.9 8.4-2 23.6-2.3 31.5-.4 3 .7 9.7 3.3 14.7 5.7 9.7 4.7 19.4 12.6 24.8 20.4l2.8 4 6.1-5.2c17.7-15 43.9-43.3 55.6-60l4-5.7-5.5-3.6c-17.9-11.9-29.7-34-29.8-56-.1-15.4 2.7-25.5 10.3-36.9 9.2-13.8 22.7-24 38-28.7 7.9-2.4 23.8-3.2 32.7-1.7l4.1.8.6-3.8c3.5-21.6 3.5-59.3 0-88l-.6-5.2-5.2.7c-27.3 4.1-54.4-7.4-68.5-29-2.3-3.4-4.1-5.9-4.1-5.6 0 .3.9 3.2 2 6.4s2 6.3 1.9 6.9c0 .6-2-4.5-4.4-11.4-2.4-6.9-7.8-19.3-11.9-27.5-12.6-25.3-26.3-44.2-46.6-64.5-36.6-36.7-82.9-60.1-135.5-68.6-13.7-2.2-52.2-2.7-67.5-1zm18.3 66.3c-.7.2-2.1.2-3 0-1-.3-.4-.5 1.2-.5 1.7 0 2.4.2 1.8.5zm-12.6.9c-.3.3-1.2.4-1.9.1-.8-.3-.5-.6.6-.6 1.1-.1 1.7.2 1.3.5zm261 109.6c-.3.8-.6.5-.6-.6-.1-1.1.2-1.7.5-1.3.3.3.4 1.2.1 1.9zm2 7c-.3.8-.6.5-.6-.6-.1-1.1.2-1.7.5-1.3.3.3.4 1.2.1 1.9zm1 5c-.3.7-.5.2-.5-1.2s.2-1.9.5-1.3c.2.7.2 1.9 0 2.5zm1 4c-.3.8-.6.5-.6-.6-.1-1.1.2-1.7.5-1.3.3.3.4 1.2.1 1.9zm1 5c-.3.8-.6.5-.6-.6-.1-1.1.2-1.7.5-1.3.3.3.4 1.2.1 1.9zm-266.2 19.5c13.2 7.7 25.5 14.7 27.3 15.6 10.1 4.9 97.1 56.2 96.5 56.8-.4.4-8.9 5.4-18.8 11.1C380 407 358.9 419 357.9 419c-.6 0-13.9 7.4-29.4 16.5-15.6 9.1-28.6 16.5-28.9 16.5-.4 0-.6-40.5-.6-90.1v-90.1l4.3 2.5c2.3 1.3 15 8.7 28.2 16.4zm267.2-13.5c-.3.7-.5.2-.5-1.2s.2-1.9.5-1.3c.2.7.2 1.9 0 2.5zm1 7c-.3.7-.5.2-.5-1.2s.2-1.9.5-1.3c.2.7.2 1.9 0 2.5zm1 8.5c-.3 1-.5.4-.5-1.2 0-1.7.2-2.4.5-1.8.2.7.2 2.1 0 3zm1 17.5c-.2 1.8-.4.6-.4-2.7 0-3.3.2-4.8.4-3.3s.2 4.2 0 6zm0 16c-.2 1.3-.4.5-.4-1.7-.1-2.2.1-3.2.4-2.3.2 1 .2 2.8 0 4zm-487 32c-.3.8-.6.5-.6-.6-.1-1.1.2-1.7.5-1.3.3.3.4 1.2.1 1.9zm-1 13.5c-.3 1-.5.2-.5-1.7s.2-2.7.5-1.8c.2 1 .2 2.6 0 3.5zm0 27c-.3 1-.5.2-.5-1.7s.2-2.7.5-1.8c.2 1 .2 2.6 0 3.5zm1 11.5c-.3.8-.6.5-.6-.6-.1-1.1.2-1.7.5-1.3.3.3.4 1.2.1 1.9zm59.4 134.5c1.3 1.6 1.2 1.7-.3.4-1-.7-1.8-1.5-1.8-1.7 0-.8.8-.3 2.1 1.3zm10.9 11.8c1.9 1.9 3.2 3.5 2.9 3.5-.3 0-2-1.6-3.9-3.5s-3.2-3.5-2.9-3.5c.3 0 2 1.6 3.9 3.5zm12.5 11.5c1 1.1 1.6 2 1.3 2-.3 0-1.3-.9-2.3-2-1-1.1-1.6-2-1.3-2 .3 0 1.3.9 2.3 2zm143.8 59.7c-.7.2-1.9.2-2.5 0-.7-.3-.2-.5 1.2-.5s1.9.2 1.3.5z"/></svg>