<svg width="56" height="56" viewBox="0 0 56 56" fill="none" xmlns="http://www.w3.org/2000/svg">
<circle cx="4" cy="4" r="4" fill="#24293A"/>
<circle cx="4" cy="19.9998" r="4" fill="#24293A"/>
<circle cx="4" cy="35.9996" r="4" fill="#24293A"/>
<circle cx="4" cy="51.9994" r="4" fill="url(#paint0_linear)"/>
<circle cx="4" cy="51.9994" r="4" fill="url(#paint1_linear)" fill-opacity="0.4" style="mix-blend-mode:soft-light"/>
<circle cx="20" cy="4" r="4" fill="url(#paint2_linear)"/>
<circle cx="20" cy="4" r="4" fill="url(#paint3_linear)" fill-opacity="0.4" style="mix-blend-mode:soft-light"/>
<circle cx="20" cy="19.9998" r="4" fill="#24293A"/>
<circle cx="20" cy="35.9996" r="4" fill="#24293A"/>
<circle cx="20" cy="51.9994" r="4" fill="#24293A"/>
<circle cx="36" cy="4" r="4" fill="#24293A"/>
<circle cx="36" cy="19.9998" r="4" fill="#24293A"/>
<circle cx="36" cy="35.9996" r="4" fill="url(#paint4_linear)"/>
<circle cx="36" cy="35.9996" r="4" fill="url(#paint5_linear)" fill-opacity="0.4" style="mix-blend-mode:soft-light"/>
<circle cx="36" cy="51.9994" r="4" fill="#24293A"/>
<circle cx="52" cy="4" r="4" fill="url(#paint6_linear)"/>
<circle cx="52" cy="4" r="4" fill="url(#paint7_linear)" fill-opacity="0.4" style="mix-blend-mode:soft-light"/>
<circle cx="52" cy="19.9998" r="4" fill="#24293A"/>
<circle cx="52" cy="35.9996" r="4" fill="#24293A"/>
<circle cx="52" cy="51.9994" r="4" fill="#24293A"/>
<defs>
<linearGradient id="paint0_linear" x1="7.90438" y1="57.428" x2="0.0593829" y2="57.3363" gradientUnits="userSpaceOnUse">
<stop stop-color="#0E8BFF"/>
<stop offset="1" stop-color="#05EDD1"/>
</linearGradient>
<linearGradient id="paint1_linear" x1="-4" y1="51.9994" x2="4" y2="59.9994" gradientUnits="userSpaceOnUse">
<stop stop-color="white"/>
<stop offset="1" stop-color="#26164F"/>
</linearGradient>
<linearGradient id="paint2_linear" x1="23.9044" y1="9.4286" x2="16.0594" y2="9.33695" gradientUnits="userSpaceOnUse">
<stop stop-color="#0E8BFF"/>
<stop offset="1" stop-color="#05EDD1"/>
</linearGradient>
<linearGradient id="paint3_linear" x1="12" y1="4" x2="20" y2="12" gradientUnits="userSpaceOnUse">
<stop stop-color="white"/>
<stop offset="1" stop-color="#26164F"/>
</linearGradient>
<linearGradient id="paint4_linear" x1="39.9044" y1="41.4282" x2="32.0594" y2="41.3365" gradientUnits="userSpaceOnUse">
<stop stop-color="#0E8BFF"/>
<stop offset="1" stop-color="#05EDD1"/>
</linearGradient>
<linearGradient id="paint5_linear" x1="28" y1="35.9996" x2="36" y2="43.9996" gradientUnits="userSpaceOnUse">
<stop stop-color="white"/>
<stop offset="1" stop-color="#26164F"/>
</linearGradient>
<linearGradient id="paint6_linear" x1="55.9044" y1="9.4286" x2="48.0594" y2="9.33695" gradientUnits="userSpaceOnUse">
<stop stop-color="#0E8BFF"/>
<stop offset="1" stop-color="#05EDD1"/>
</linearGradient>
<linearGradient id="paint7_linear" x1="44" y1="4" x2="52" y2="12" gradientUnits="userSpaceOnUse">
<stop stop-color="white"/>
<stop offset="1" stop-color="#26164F"/>
</linearGradient>
</defs>
</svg>
