<svg width="194" height="59" viewBox="0 0 194 59" fill="none" xmlns="http://www.w3.org/2000/svg">
<path d="M159.903 17.6602L158.097 24.0017H157.053L155.528 19.4262L154.003 24.0017H152.959L151.073 17.6602H152.317L153.601 22.1956L155.006 17.6602H156.13L157.575 22.1956L158.859 17.6602H159.903Z" fill="white"/>
<path d="M163.436 23.5995C163.035 23.9206 162.513 24.1212 161.871 24.1212C161.228 24.1212 160.666 23.9206 160.265 23.5192C159.864 23.1178 159.663 22.5961 159.663 21.9539C159.663 21.3518 159.864 20.8301 160.265 20.4287C160.666 20.0274 161.188 19.8267 161.83 19.8267C162.352 19.8267 162.834 20.0274 163.195 20.3484C163.556 20.7097 163.757 21.1512 163.757 21.7131C163.757 21.9539 163.757 22.1144 163.677 22.275H160.747C160.827 22.877 161.309 23.2382 161.951 23.2382C162.432 23.2382 162.794 23.1178 163.115 22.877L163.436 23.5995ZM160.707 21.5927H162.713C162.713 21.0709 162.352 20.7097 161.79 20.7097C161.188 20.7097 160.827 21.0308 160.707 21.5927Z" fill="white"/>
<path d="M164.598 17.6597H165.642V20.1882C165.923 19.9474 166.284 19.827 166.725 19.827C167.327 19.827 167.809 20.0277 168.13 20.3889C168.491 20.7903 168.652 21.2719 168.652 21.8739C168.652 22.5563 168.451 23.078 168.01 23.4794C167.608 23.8807 167.046 24.0814 166.324 24.0814C165.682 24.0814 165 23.8807 164.598 23.6399V17.6597ZM165.642 21.1916V22.9175C165.842 23.0379 166.083 23.1182 166.364 23.1182C167.046 23.1182 167.528 22.6767 167.528 21.9542C167.528 21.1916 167.087 20.7903 166.444 20.7903C166.123 20.8304 165.883 20.9508 165.642 21.1916Z" fill="white"/>
<path d="M171.461 17.6597H172.505V20.1882C172.786 19.9474 173.147 19.827 173.589 19.827C174.191 19.827 174.672 20.0277 174.993 20.3889C175.355 20.7903 175.515 21.2719 175.515 21.8739C175.515 22.5563 175.314 23.078 174.873 23.4794C174.472 23.8807 173.91 24.0814 173.187 24.0814C172.545 24.0814 171.863 23.8807 171.461 23.6399V17.6597ZM172.505 21.1916V22.9175C172.706 23.0379 172.946 23.1182 173.227 23.1182C173.91 23.1182 174.391 22.6767 174.391 21.9542C174.391 21.1916 173.95 20.7903 173.308 20.7903C173.027 20.8304 172.746 20.9508 172.505 21.1916Z" fill="white"/>
<path d="M176.478 20.228C176.92 19.9471 177.401 19.8267 177.923 19.8267C179.087 19.8267 179.569 20.3886 179.569 21.5124V24.0008H178.646V23.5192C178.405 23.8804 178.003 24.041 177.442 24.041C176.679 24.041 176.157 23.5593 176.157 22.7967C176.157 21.9539 176.759 21.4723 177.642 21.4723C178.003 21.4723 178.325 21.5525 178.565 21.7532C178.606 21.0308 178.365 20.7097 177.803 20.7097C177.522 20.7097 177.161 20.7899 176.719 20.9906L176.478 20.228ZM178.565 22.8369V22.4355C178.405 22.3151 178.164 22.2348 177.843 22.2348C177.482 22.2348 177.201 22.4355 177.201 22.7566C177.201 23.0376 177.442 23.2382 177.763 23.2382C178.164 23.1981 178.405 23.0777 178.565 22.8369Z" fill="white"/>
<path d="M181.977 19.8267C182.659 19.8267 183.141 19.9872 183.542 20.3484L183.141 21.111C182.82 20.8301 182.459 20.7097 182.017 20.7097C181.736 20.7097 181.495 20.8702 181.495 21.0709C181.495 21.3117 181.857 21.4723 182.258 21.5525C182.9 21.6729 183.703 21.9539 183.703 22.7967C183.703 23.5995 183.061 24.1212 182.057 24.1212C181.696 24.1212 181.375 24.041 181.014 23.8804C180.693 23.7199 180.452 23.5593 180.372 23.3988L180.893 22.7165C181.014 22.8369 181.214 22.9573 181.455 23.0777C181.736 23.158 181.937 23.2382 182.138 23.2382C182.579 23.2784 182.9 22.7967 182.459 22.5559C181.897 22.275 180.492 22.2348 180.492 21.0709C180.492 20.3083 181.134 19.8267 181.977 19.8267Z" fill="white"/>
<path d="M188.16 23.5995C187.758 23.9206 187.236 24.1212 186.594 24.1212C185.952 24.1212 185.39 23.9206 184.989 23.5192C184.587 23.1178 184.387 22.5961 184.387 21.9539C184.387 21.3518 184.587 20.8301 184.989 20.4287C185.39 20.0274 185.912 19.8267 186.554 19.8267C187.076 19.8267 187.557 20.0274 187.919 20.3484C188.28 20.7097 188.481 21.1512 188.481 21.7131C188.481 21.9539 188.481 22.1144 188.4 22.275H185.47C185.551 22.877 186.032 23.2382 186.674 23.2382C187.156 23.2382 187.517 23.1178 187.838 22.877L188.16 23.5995ZM185.43 21.5927H187.437C187.437 21.0709 187.076 20.7097 186.514 20.7097C185.912 20.7097 185.551 21.0308 185.43 21.5927Z" fill="white"/>
<path d="M192.171 24.0012V23.5597C191.849 23.8807 191.448 24.0413 191.007 24.0413C190.445 24.0413 189.963 23.8406 189.602 23.4794C189.241 23.1182 189.08 22.5964 189.08 21.9943C189.08 21.3522 189.281 20.8304 189.722 20.429C190.124 20.0277 190.686 19.827 191.328 19.827C191.689 19.827 191.97 19.9073 192.171 20.0277V17.6597H193.214V24.0012H192.171ZM192.171 22.7168V21.0712C191.89 20.9107 191.649 20.8304 191.368 20.8304C190.726 20.8304 190.204 21.2719 190.204 21.9943C190.204 22.6767 190.645 23.1182 191.207 23.1182C191.569 23.1182 191.89 22.9977 192.171 22.7168Z" fill="white"/>
<path d="M157.333 32.5905H156.45L152.959 28.1755V32.5905H151.915V26.249H152.798L156.29 30.6639V26.249H157.333V32.5905Z" fill="white"/>
<path d="M162.271 32.1888C161.87 32.5099 161.348 32.7105 160.706 32.7105C160.064 32.7105 159.502 32.5099 159.101 32.1085C158.699 31.7071 158.499 31.1854 158.499 30.5432C158.499 29.9412 158.699 29.4194 159.101 29.018C159.502 28.6167 160.024 28.416 160.666 28.416C161.188 28.416 161.669 28.6167 162.031 28.9378C162.392 29.299 162.592 29.7405 162.592 30.3024C162.592 30.5432 162.592 30.7037 162.512 30.8643H159.582C159.662 31.4663 160.144 31.8275 160.786 31.8275C161.268 31.8275 161.629 31.7071 161.95 31.4663L162.271 32.1888ZM159.582 30.182H161.589C161.589 29.6602 161.228 29.299 160.666 29.299C160.024 29.299 159.662 29.5799 159.582 30.182Z" fill="white"/>
<path d="M169.334 28.5363L168.05 32.6302H167.126L166.243 30.3826C166.203 30.3023 166.203 30.2221 166.163 30.1017L166.123 29.901C166.083 30.0615 166.043 30.2622 165.962 30.3826L165.12 32.6302H164.237L162.912 28.5363H164.036L164.678 30.7438C164.718 30.8241 164.758 30.9846 164.799 31.3057C164.879 31.0248 164.919 30.8241 164.959 30.7438L165.722 28.5363H166.645L167.447 30.7438C167.488 30.8642 167.528 31.0649 167.608 31.3057C167.648 31.1853 167.688 30.9846 167.728 30.7037L168.33 28.5363H169.334Z" fill="white"/>
<path d="M171.343 28.416C171.985 28.416 172.507 28.5765 172.908 28.9378L172.507 29.7003C172.186 29.4194 171.824 29.299 171.383 29.299C171.102 29.299 170.861 29.4595 170.861 29.6602C170.861 29.901 171.222 30.0616 171.624 30.1418C172.266 30.2622 173.069 30.5432 173.069 31.3861C173.069 32.1888 172.427 32.6704 171.423 32.6704C171.062 32.6704 170.741 32.5901 170.38 32.4296C170.058 32.269 169.818 32.1085 169.697 31.948L170.219 31.2656C170.339 31.386 170.54 31.5065 170.781 31.6269C171.062 31.7071 171.263 31.7874 171.463 31.7874C171.905 31.8275 172.226 31.3459 171.784 31.1051C171.222 30.8241 169.818 30.784 169.818 29.6201C169.858 28.8976 170.46 28.416 171.343 28.416Z" fill="white"/>
<path d="M173.99 32.5901V28.4963H175.033V28.8976C175.274 28.5765 175.595 28.416 175.956 28.416C176.237 28.416 176.438 28.4561 176.599 28.5765L176.237 29.5398C176.077 29.4194 175.876 29.3792 175.716 29.3792C175.435 29.3792 175.194 29.5398 175.033 29.8207V32.55H173.99V32.5901Z" fill="white"/>
<path d="M176.961 30.5835C176.961 29.9413 177.162 29.4597 177.563 29.0584C177.965 28.657 178.527 28.4563 179.169 28.4563C179.851 28.4563 180.373 28.657 180.774 29.0584C181.176 29.4597 181.376 29.9815 181.376 30.5835C181.376 31.2257 181.176 31.7073 180.774 32.1087C180.373 32.5101 179.851 32.7107 179.169 32.7107C178.527 32.7107 177.965 32.5101 177.563 32.1087C177.162 31.7073 176.961 31.1856 176.961 30.5835ZM179.169 31.7475C179.811 31.7475 180.293 31.2658 180.293 30.5835C180.293 29.9012 179.811 29.4196 179.169 29.4196C178.527 29.4196 178.085 29.9012 178.085 30.5835C178.045 31.2658 178.527 31.7475 179.169 31.7475Z" fill="white"/>
<path d="M182.018 30.5835C182.018 29.9413 182.218 29.4597 182.62 29.0584C183.021 28.657 183.583 28.4563 184.225 28.4563C184.867 28.4563 185.429 28.657 185.831 29.0584C186.232 29.4597 186.433 29.9815 186.433 30.5835C186.433 31.2257 186.232 31.7073 185.831 32.1087C185.429 32.5101 184.907 32.7107 184.225 32.7107C183.583 32.7107 183.021 32.5101 182.62 32.1087C182.218 31.7073 182.018 31.1856 182.018 30.5835ZM184.265 31.7475C184.907 31.7475 185.389 31.2658 185.389 30.5835C185.389 29.9012 184.907 29.4196 184.265 29.4196C183.623 29.4196 183.141 29.9012 183.141 30.5835C183.141 31.2658 183.623 31.7475 184.265 31.7475Z" fill="white"/>
<path d="M193.577 32.5901H192.534V30.182C192.534 29.6602 192.293 29.4194 191.852 29.4194C191.45 29.4194 191.169 29.5799 191.009 29.901C191.009 29.9412 191.009 30.1418 191.009 30.182V32.5901H189.965V30.1418C189.965 29.7003 189.724 29.4194 189.283 29.4194C188.922 29.4194 188.641 29.5799 188.44 29.8609V32.5901H187.396V28.4963H188.44V28.9378C188.761 28.5765 189.203 28.416 189.724 28.416C190.326 28.416 190.768 28.6969 190.928 29.0582C191.25 28.6167 191.731 28.416 192.293 28.416C193.176 28.416 193.577 28.8976 193.577 29.901V32.5901Z" fill="white"/>
<path d="M152.958 37.0053C153.641 37.0053 154.122 37.1658 154.524 37.5271L154.122 38.2896C153.801 38.0087 153.44 37.8883 152.999 37.8883C152.718 37.8883 152.477 38.0488 152.477 38.2495C152.477 38.4903 152.838 38.6509 153.239 38.7311C153.882 38.8516 154.684 39.1325 154.684 39.9754C154.684 40.7781 154.042 41.2597 153.039 41.2597C152.678 41.2597 152.356 41.1794 151.995 41.0189C151.674 40.8584 151.433 40.6978 151.353 40.5373L151.875 39.855C151.995 39.9754 152.196 40.0958 152.437 40.2162C152.718 40.2965 152.918 40.3767 153.119 40.3767C153.561 40.4169 153.882 39.9352 153.44 39.6944C152.878 39.4135 151.473 39.3733 151.473 38.2094C151.473 37.4869 152.116 37.0053 152.958 37.0053Z" fill="white"/>
<path d="M155.368 39.1325C155.368 38.4903 155.569 38.0087 155.97 37.6073C156.372 37.206 156.933 37.0053 157.576 37.0053C158.218 37.0053 158.78 37.206 159.181 37.6073C159.582 38.0087 159.783 38.5305 159.783 39.1325C159.783 39.7747 159.582 40.2563 159.181 40.6577C158.78 41.059 158.258 41.2597 157.576 41.2597C156.933 41.2597 156.372 41.059 155.97 40.6577C155.569 40.2965 155.368 39.7747 155.368 39.1325ZM157.576 40.3366C158.218 40.3366 158.699 39.855 158.699 39.1726C158.699 38.4903 158.218 38.0087 157.576 38.0087C156.933 38.0087 156.452 38.4903 156.452 39.1726C156.492 39.8148 156.933 40.3366 157.576 40.3366Z" fill="white"/>
<path d="M160.744 41.1792V36.4432C160.744 35.3193 161.266 34.7173 162.189 34.7173C162.711 34.7173 163.072 34.8377 163.313 35.1187L162.952 35.9214C162.831 35.801 162.631 35.7207 162.35 35.7207C161.948 35.7207 161.748 36.0017 161.748 36.5234V37.0853H162.871V38.0486H161.748V41.1391H160.744V41.1792Z" fill="white"/>
<path d="M163.555 35.9618H164.598V37.0856H165.923V38.0489H164.598V39.5339C164.598 40.0155 164.759 40.2564 165.08 40.2564C165.281 40.2564 165.481 40.1761 165.722 40.0155L166.043 40.8183C165.722 41.0992 165.321 41.2196 164.839 41.2196C163.956 41.2196 163.555 40.6577 163.555 39.5741V35.9618Z" fill="white"/>
<path d="M172.747 37.1257L171.462 41.2195H170.539L169.656 38.9719C169.616 38.8916 169.616 38.8114 169.576 38.691L169.536 38.4903C169.496 38.6508 169.455 38.8515 169.375 38.9719L168.532 41.2195H167.609L166.285 37.1257H167.408L168.051 39.3331C168.091 39.4134 168.131 39.574 168.171 39.895C168.251 39.6141 168.291 39.4134 168.332 39.3331L169.094 37.1257H170.017L170.82 39.3331C170.86 39.4535 170.9 39.6542 170.981 39.895C171.021 39.7746 171.061 39.574 171.101 39.293L171.703 37.1257H172.747Z" fill="white"/>
<path d="M173.429 37.4067C173.87 37.1257 174.352 37.0053 174.873 37.0053C176.037 37.0053 176.519 37.5672 176.519 38.691V41.1794H175.596V40.7379C175.355 41.0992 174.954 41.2597 174.392 41.2597C173.629 41.2597 173.107 40.7781 173.107 40.0155C173.107 39.1726 173.709 38.691 174.592 38.691C174.954 38.691 175.275 38.7713 175.516 38.972C175.556 38.2495 175.315 37.9284 174.753 37.9284C174.472 37.9284 174.111 38.0087 173.669 38.2094L173.429 37.4067ZM175.516 39.9754V39.574C175.355 39.4536 175.114 39.3733 174.793 39.3733C174.432 39.3733 174.151 39.574 174.151 39.8951C174.151 40.176 174.392 40.3767 174.713 40.3767C175.074 40.3767 175.355 40.2162 175.516 39.9754Z" fill="white"/>
<path d="M177.564 41.179V37.1253H178.608V37.5266C178.848 37.2055 179.169 37.045 179.531 37.045C179.812 37.045 180.012 37.0851 180.173 37.2055L179.812 38.1688C179.651 38.0484 179.45 38.0083 179.29 38.0083C179.009 38.0083 178.768 38.1688 178.608 38.4498V41.179H177.564Z" fill="white"/>
<path d="M184.265 40.7781C183.864 41.0992 183.342 41.2999 182.7 41.2999C182.058 41.2999 181.496 41.0992 181.095 40.6978C180.693 40.2964 180.493 39.7747 180.493 39.1325C180.493 38.5305 180.693 38.0087 181.095 37.6073C181.496 37.206 182.018 37.0053 182.66 37.0053C183.182 37.0053 183.663 37.206 184.025 37.5271C184.386 37.8883 184.587 38.3298 184.587 38.8917C184.587 39.1325 184.587 39.2931 184.506 39.4536H181.576C181.657 40.0556 182.138 40.4169 182.78 40.4169C183.262 40.4169 183.623 40.2965 183.944 40.0556L184.265 40.7781ZM181.536 38.7713H183.543C183.543 38.2495 183.182 37.8883 182.62 37.8883C182.018 37.8883 181.657 38.1692 181.536 38.7713Z" fill="white"/>
<path d="M52.9396 22.4361C52.4579 22.5565 51.9763 22.6367 51.4545 22.6367C48.2436 22.6367 45.6348 20.0279 45.6348 16.817C45.6348 14.6095 46.879 12.683 48.7253 11.6796C47.16 9.39184 45.2736 7.3449 43.1062 5.65918C42.0627 7.30476 40.2566 8.38844 38.2096 8.38844C34.9987 8.38844 32.3899 5.77959 32.3899 2.56871C32.3899 1.8864 32.5103 1.28435 32.711 0.682313C30.7844 0.240817 28.7375 0 26.6504 0V5.77959C38.1695 5.77959 47.481 15.0912 47.481 26.6102C47.481 38.1293 38.1695 47.4408 26.6504 47.4408V35.4401L21.6334 38.3299V22.8374L26.6504 25.7272V11.519C15.1314 11.519 5.81982 20.8306 5.81982 32.3497C5.81982 43.8687 15.1314 53.1803 26.6504 53.1803C28.7375 53.1803 30.7443 52.9395 32.6708 52.498C32.4702 51.8959 32.3498 51.2939 32.3498 50.6116C32.3498 47.4007 34.9586 44.7918 38.1695 44.7918C40.2566 44.7918 42.0627 45.8755 43.0661 47.481C45.2334 45.7551 47.1198 43.7483 48.6851 41.4605C46.879 40.4973 45.5947 38.5306 45.5947 36.3231C45.5947 33.1122 48.2035 30.5034 51.4144 30.5034C51.9361 30.5034 52.4178 30.5837 52.8994 30.7041C53.1001 29.3395 53.2205 27.9748 53.2205 26.5299C53.2606 25.1653 53.1402 23.8007 52.9396 22.4361Z" fill="white"/>
<path d="M26.6102 5.73923C24.5231 5.73923 22.5163 5.98004 20.5497 6.42154C20.7503 7.02358 20.8707 7.66576 20.8707 8.30793C20.8707 11.5188 18.2619 14.1277 15.051 14.1277C12.9639 14.1277 11.1578 13.044 10.1544 11.4385C7.98707 13.1243 6.10068 15.1712 4.53537 17.459C6.38163 18.4222 7.62585 20.3889 7.62585 22.5964C7.62585 25.8073 5.01701 28.4161 1.80612 28.4161C1.28435 28.4161 0.802721 28.3358 0.321088 28.2154C0.120408 29.58 0 30.9447 0 32.3494C0 33.7542 0.120408 35.159 0.321088 36.5236C0.802721 36.4032 1.28435 36.3229 1.80612 36.3229C5.01701 36.3229 7.62585 38.9317 7.62585 42.1426C7.62585 44.3501 6.38163 46.2766 4.53537 47.28C6.10068 49.5678 7.98707 51.6147 10.1544 53.3005C11.198 51.695 13.0041 50.6113 15.051 50.6113C18.2619 50.6113 20.8707 53.2202 20.8707 56.4311C20.8707 57.0732 20.7503 57.7154 20.5497 58.3175C22.4762 58.759 24.5231 58.9998 26.5701 58.9998V53.2202C15.051 53.2202 5.73945 43.9086 5.73945 32.3896C5.73945 20.8705 15.051 11.559 26.5701 11.559V25.7671L34.9585 30.5834L26.5701 35.3998V47.4005C38.0891 47.4005 47.4007 38.0889 47.4007 26.5698C47.481 15.0909 38.1292 5.73923 26.6102 5.73923Z" fill="url(#paint0_linear)"/>
<path d="M26.6102 5.73923C24.5231 5.73923 22.5163 5.98004 20.5497 6.42154C20.7503 7.02358 20.8707 7.66576 20.8707 8.30793C20.8707 11.5188 18.2619 14.1277 15.051 14.1277C12.9639 14.1277 11.1578 13.044 10.1544 11.4385C7.98707 13.1243 6.10068 15.1712 4.53537 17.459C6.38163 18.4222 7.62585 20.3889 7.62585 22.5964C7.62585 25.8073 5.01701 28.4161 1.80612 28.4161C1.28435 28.4161 0.802721 28.3358 0.321088 28.2154C0.120408 29.58 0 30.9447 0 32.3494C0 33.7542 0.120408 35.159 0.321088 36.5236C0.802721 36.4032 1.28435 36.3229 1.80612 36.3229C5.01701 36.3229 7.62585 38.9317 7.62585 42.1426C7.62585 44.3501 6.38163 46.2766 4.53537 47.28C6.10068 49.5678 7.98707 51.6147 10.1544 53.3005C11.198 51.695 13.0041 50.6113 15.051 50.6113C18.2619 50.6113 20.8707 53.2202 20.8707 56.4311C20.8707 57.0732 20.7503 57.7154 20.5497 58.3175C22.4762 58.759 24.5231 58.9998 26.5701 58.9998V53.2202C15.051 53.2202 5.73945 43.9086 5.73945 32.3896C5.73945 20.8705 15.051 11.559 26.5701 11.559V25.7671L34.9585 30.5834L26.5701 35.3998V47.4005C38.0891 47.4005 47.4007 38.0889 47.4007 26.5698C47.481 15.0909 38.1292 5.73923 26.6102 5.73923Z" fill="url(#paint1_linear)" fill-opacity="0.4" style="mix-blend-mode:soft-light"/>
<path d="M72.0056 28.416L68.2328 37.8881L63.9784 28.4963V37.8881H60.2056V21.4725H66.3865L68.9151 28.0147L71.6443 21.4725H77.2634V37.8881H72.0457V28.416H72.0056Z" fill="white"/>
<path d="M84.8491 35.4398L83.926 37.8881H80.1934L86.3342 21.4725H91.0301L97.2512 37.8881H91.7525L90.8294 35.4398H84.8491ZM89.7457 32.5902L87.8593 27.533L85.973 32.5902H89.7457Z" fill="white"/>
<path d="M96.5288 21.4322H102.268L104.917 26.0077L107.566 21.4322H111.861L106.683 29.8607V37.8478H101.546V29.8607L96.5288 21.4322Z" fill="white"/>
<path d="M128.316 34.7174V37.8881H113.346V35.8412C113.346 35.0384 113.667 34.1153 114.309 33.0316C114.951 31.948 116.436 30.8643 118.764 29.7806C120.048 29.1786 120.972 28.7371 121.493 28.416C122.015 28.135 122.457 27.7738 122.697 27.4126C122.978 27.0514 123.099 26.5697 123.099 26.0078C123.019 25.4459 122.697 25.0044 122.176 24.7235C121.654 24.4425 120.811 24.3221 119.607 24.282C117.881 24.282 115.513 25.2051 115.513 25.2051L114.349 22.6765C114.911 22.2752 115.714 21.9139 116.757 21.5929C117.801 21.2718 119.045 21.0711 120.49 21.0711C123.099 21.0711 125.065 21.5527 126.35 22.516C127.634 23.4391 128.316 24.7235 128.316 26.369C128.316 27.1316 128.156 27.7738 127.875 28.2956C127.554 28.8173 127.072 29.299 126.39 29.7405C125.708 30.182 124.784 30.6235 123.58 31.1051C121.935 31.7473 120.731 32.3493 120.048 32.9112C119.326 33.4731 118.965 33.9146 118.925 34.2759L118.884 34.7174H128.316Z" fill="white"/>
<path d="M143.81 37.8881H138.633V34.1153H130.405V30.6235L138.312 21.4725H143.81V31.2256H145.777V34.1153H143.81V37.8881ZM134.218 31.2256H138.633V26.1684L134.218 31.2256Z" fill="white"/>
<defs>
<linearGradient id="paint0_linear" x1="46.8346" y1="68.5108" x2="0.350534" y2="68.0275" gradientUnits="userSpaceOnUse">
<stop stop-color="#0E8BFF"/>
<stop offset="1" stop-color="#05EDD1"/>
</linearGradient>
<linearGradient id="paint1_linear" x1="-23.7006" y1="32.3695" x2="29.2003" y2="79.4506" gradientUnits="userSpaceOnUse">
<stop stop-color="white"/>
<stop offset="1" stop-color="#26164F"/>
</linearGradient>
</defs>
</svg>
