<svg xmlns="http://www.w3.org/2000/svg" xmlns:xlink="http://www.w3.org/1999/xlink" version="1.1" id="Layer_1" xml:space="preserve" viewBox="310 195 50 115" width="100" height="100">


<g>
	<g>
		<path fill="#071D23" d="M386.81,238.801c-0.91,0.246-1.865,0.387-2.857,0.387c-6.185,0-11.197-5.018-11.197-11.196    c0-4.27,2.4-7.985,5.907-9.868c-2.972-4.405-6.629-8.308-10.796-11.59c-1.986,3.135-5.469,5.218-9.448,5.218    c-6.185,0-11.196-5.018-11.196-11.196c0-1.277,0.22-2.502,0.619-3.644c-3.734-0.864-7.624-1.342-11.622-1.342v11.132    c22.134,0,40.083,17.949,40.083,40.083c0,22.141-17.95,40.09-40.083,40.09v-23.11l-9.668,5.586v-29.764l9.668,5.585v-27.339    c-22.141,0-40.09,17.949-40.09,40.083c0,22.142,17.949,40.083,40.09,40.083c3.992,0,7.88-0.463,11.608-1.334    c-0.386-1.135-0.605-2.353-0.605-3.625c0-6.186,5.011-11.19,11.196-11.19c3.979,0,7.455,2.07,9.442,5.192    c4.172-3.284,7.83-7.178,10.802-11.583c-3.507-1.89-5.907-5.6-5.907-9.874c0-6.18,5.012-11.191,11.197-11.191    c0.993,0,1.948,0.136,2.857,0.381c0.406-2.606,0.625-5.27,0.625-7.991C387.435,244.071,387.216,241.407,386.81,238.801z"/>
		<path fill="#32BCAD" d="M336.22,206.703c-3.999,0-7.888,0.471-11.622,1.342c0.393,1.141,0.613,2.366,0.613,3.644    c0,6.178-5.011,11.19-11.19,11.19c-3.986,0-7.468-2.077-9.455-5.205c-4.167,3.276-7.817,7.178-10.797,11.583    c3.516,1.883,5.91,5.598,5.91,9.867c0,6.179-5.013,11.19-11.198,11.19c-0.987,0-1.947-0.136-2.856-0.381    c-0.406,2.605-0.625,5.269-0.625,7.984c0,2.722,0.219,5.386,0.625,7.992c0.91-0.246,1.869-0.382,2.856-0.382    c6.185,0,11.198,5.013,11.198,11.191c0,4.268-2.394,7.983-5.91,9.866c2.98,4.406,6.638,8.307,10.804,11.59    c1.987-3.115,5.47-5.198,9.449-5.198c6.179,0,11.19,5.012,11.19,11.197c0,1.27-0.22,2.483-0.606,3.631    c3.728,0.858,7.616,1.335,11.615,1.335V298c-22.141,0-40.09-17.941-40.09-40.083c0-22.134,17.949-40.083,40.09-40.083v27.339    l16.097,9.294l-16.097,9.299v23.11c22.134,0,40.083-17.949,40.083-40.09C376.303,224.652,358.354,206.703,336.22,206.703z"/>
	</g>
	
</g>

</svg>